<svg width="26" height="26" viewBox="0 0 26 26" fill="none" xmlns="http://www.w3.org/2000/svg">
<path d="M4.33333 11.2666C3.37604 11.2666 2.6 12.0427 2.6 13C2.6 13.9573 3.37604 14.7333 4.33333 14.7333L4.33333 11.2666ZM21.6667 14.7333C22.624 14.7333 23.4 13.9573 23.4 13C23.4 12.0427 22.624 11.2666 21.6667 11.2666V14.7333ZM14.7333 4.33331C14.7333 3.37602 13.9573 2.59998 13 2.59998C12.0427 2.59998 11.2667 3.37602 11.2667 4.33331H14.7333ZM11.2667 21.6666C11.2667 22.6239 12.0427 23.4 13 23.4C13.9573 23.4 14.7333 22.6239 14.7333 21.6666H11.2667ZM4.33333 14.7333H13V11.2666L4.33333 11.2666L4.33333 14.7333ZM13 14.7333L21.6667 14.7333V11.2666L13 11.2666V14.7333ZM11.2667 4.33331V13H14.7333V4.33331H11.2667ZM11.2667 13L11.2667 21.6666H14.7333L14.7333 13H11.2667Z" fill="currentColor"/>
</svg>
