<svg width="123" height="123" viewBox="0 0 123 123" fill="none" xmlns="http://www.w3.org/2000/svg">
<g clip-path="url(#clip0_85_11)">
<path fill-rule="evenodd" clip-rule="evenodd" d="M61.44 0C78.41 0 93.77 6.88 104.88 18C116 29.12 122.88 44.48 122.88 61.44C122.88 78.41 116 93.77 104.88 104.88C93.76 116 78.4 122.88 61.44 122.88C44.48 122.88 29.11 116 18 104.88C6.88 93.77 0 78.41 0 61.44C0 44.47 6.88 29.11 18 18C29.11 6.88 44.47 0 61.44 0ZM76.85 117.08L76.73 117L83.62 93.91L69.41 78.15L52.66 78L39.38 94.62L46.04 116.94L45.89 117.04C50.84 118.42 56.05 119.16 61.44 119.16C66.78 119.16 71.95 118.44 76.85 117.08ZM12.22 91.61L36.56 91.73L49.28 75.8L44.02 59.68L22.6 50.38L3.78 64.08C4.23 74.14 7.26 83.53 12.22 91.61ZM16.77 24.88L24.17 47.02L44.15 55.7L59.59 43.73V20.94L40.51 7.63C32.99 10.56 26.23 15.02 20.62 20.63C19.27 21.98 17.98 23.4 16.77 24.88ZM81.7 7.37L63.3 20.77V43.7L77.8 54.91L98.61 45.99L105.79 24.5C104.67 23.15 103.49 21.86 102.25 20.62C96.48 14.85 89.49 10.29 81.7 7.37ZM119.09 64.36L119.07 64.37L99.09 49.82L79.28 58.31L73.2 76.34L86.93 91.57C86.99 91.63 87.02 91.7 87.04 91.78L110.64 91.67C115.56 83.65 118.59 74.34 119.09 64.36Z" fill="currentColor"/>
</g>
<defs>
<clipPath id="clip0_85_11">
<rect width="122.88" height="122.88" fill="white"/>
</clipPath>
</defs>
</svg>
