<svg width="126" height="126" viewBox="0 0 126 126" fill="none" xmlns="http://www.w3.org/2000/svg">
<g clip-path="url(#clip0_521_268)">
<path d="M75.7396 4.16929C72.2021 6.21165 70.9859 10.7421 73.0309 14.2841L89.5147 43.1038C89.5147 43.1038 90.684 45.1027 88.7563 46.2157C86.7858 47.3534 85.683 45.316 85.683 45.316L61.7367 3.84166C59.6927 0.301495 55.2651 -0.804944 51.7276 1.23742C48.1857 3.28236 47.2505 7.48501 49.2944 11.0252L73.2386 52.4977C73.2386 52.4977 74.1916 54.6497 72.2893 55.7479C70.4019 56.8376 69.0901 54.8929 69.0901 54.8929L41.1543 6.50675C39.112 2.96927 34.8917 1.8214 31.3524 3.86479C27.8123 5.90871 26.6733 10.1507 28.7157 13.6882L56.6515 62.0744C56.6515 62.0744 57.6752 64.0698 55.6364 65.2469C53.6326 66.4038 52.5038 64.469 52.5038 64.469L31.7524 28.5246C29.7085 24.9844 25.655 24.366 22.1157 26.4094C18.5737 28.4543 17.2653 32.1698 19.3087 35.709L49.6381 88.2411C49.6381 88.2411 50.6388 90.775 45.0637 88.8534C30.7724 83.9303 25.1609 84.5519 25.1609 84.5519C25.1609 84.5519 14.7081 85.2646 15.2597 94.5556C15.6623 101.294 18.5956 99.9737 26.5772 103.925C33.6405 107.423 54.2368 115.463 54.2368 115.463C54.2368 115.463 79.9896 127.291 99.1433 116.233C99.1433 116.233 137.578 96.1763 116.151 59.0647L85.8517 6.88578C83.8024 3.34428 79.2795 2.12942 75.7393 4.17333" fill="currentColor"/>
</g>
<defs>
<clipPath id="clip0_521_268">
<rect width="126" height="126" fill="white"/>
</clipPath>
</defs>
</svg>
