<svg width="99" height="123" viewBox="0 0 99 123" fill="none" xmlns="http://www.w3.org/2000/svg">
<g clip-path="url(#clip0_85_14)">
<path d="M96.54 57.98C95.65 57.39 94.65 57.11 93.65 57.11L94.44 55.92C95.24 54.7 95.48 53.27 95.21 51.94C94.94 50.61 94.16 49.38 92.94 48.58C92.04 47.98 90.97 47.68 89.89 47.71L90.53 46.75C91.33 45.53 91.57 44.1 91.3 42.77C91.03 41.44 90.25 40.21 89.03 39.41C87.81 38.61 86.38 38.37 85.05 38.64C83.72 38.91 82.49 39.69 81.69 40.91L81.05 41.89C80.66 40.94 79.99 40.09 79.08 39.49C77.86 38.69 76.43 38.45 75.1 38.72C73.77 38.99 72.54 39.77 71.74 40.99L57.83 61.98C57.53 62.31 57.26 62.66 57.01 63.03L56.19 64.27L56.15 64.09C55.86 62.87 55.61 61.64 55.51 61.17C54.87 58.04 53.11 56.29 51.16 55.74C50.28 55.49 49.38 55.49 48.52 55.7C47.67 55.92 46.86 56.35 46.18 56.99C44.57 58.49 43.66 61.13 44.57 64.58L44.58 64.64V64.65C45.3 68.28 45.6 76.46 47.8 82.24L35.57 97.12C35.34 97.39 34.95 97.82 34.58 98.24C31.86 101.28 30.08 103.27 32.28 108.3C33.1 110.17 34.44 112 36.12 113.7C39.24 116.85 43.55 119.57 47.74 121.21C52.06 122.9 56.32 123.46 59.19 122.21C59.86 121.92 60.45 121.53 60.96 121.04C61.08 120.93 61.19 120.8 61.26 120.64L71.87 97.6C75.19 95.52 79 94.16 81.15 90.9L86.63 82.61C86.82 82.32 86.99 82.02 87.15 81.72C87.24 81.64 87.32 81.55 87.39 81.45L87.4 81.44L98.04 65.33C98.84 64.11 99.08 62.68 98.81 61.35C98.54 60.01 97.76 58.78 96.54 57.98ZM5.24001 11.56C6.30001 11.55 7.30001 11.85 8.14001 12.39L8.12001 10.96C8.10001 9.50002 8.68001 8.17002 9.63001 7.20002C10.58 6.23002 11.9 5.62002 13.36 5.60002C13.36 5.60002 13.36 5.60002 13.37 5.60002C14.45 5.59002 15.51 5.91002 16.41 6.52002L16.4 5.37002C16.38 3.91002 16.96 2.58002 17.91 1.61002C18.86 0.640023 20.18 0.0300226 21.64 0.0100226C23.1 -0.00997745 24.43 0.570023 25.4 1.52002C26.37 2.47002 26.98 3.79002 27 5.25002V6.41002C27.84 5.82002 28.86 5.47002 29.96 5.46002C31.42 5.44002 32.75 6.02002 33.72 6.97002C34.69 7.92002 35.3 9.24002 35.32 10.7L35.62 35.89C35.69 36.33 35.73 36.77 35.74 37.22L35.76 38.7L35.89 38.57C36.79 37.7 37.67 36.8 38 36.46C40.23 34.17 42.66 33.66 44.6 34.25C45.47 34.52 46.24 35 46.84 35.65C47.44 36.29 47.88 37.1 48.11 38C48.65 40.14 47.99 42.84 45.36 45.25L45.32 45.29L45.31 45.3C42.74 47.96 38.06 54.68 33.08 58.35L35.34 77.48C35.39 77.83 35.48 78.41 35.57 78.96C36.21 82.99 36.63 85.62 32.06 88.66C30.36 89.79 28.24 90.6 25.91 91.12C21.58 92.08 16.49 92.04 12.08 91.15C7.53001 90.23 3.64001 88.4 1.91001 85.79C1.51001 85.18 1.22001 84.54 1.05001 83.85C1.00001 83.69 0.990013 83.53 1.01001 83.35L4.55001 58.23C2.89001 54.68 0.420013 51.48 0.370013 47.58L0.250013 37.64C0.250013 37.29 0.260013 36.95 0.290013 36.61C0.250013 36.49 0.230013 36.37 0.230013 36.25V36.24L1.27887e-05 16.93C-0.0199872 15.47 0.560013 14.14 1.51001 13.17C2.46001 12.19 3.78001 11.58 5.24001 11.56ZM30.39 57.77C35.03 53.84 41.84 45.43 43.58 43.63C43.62 43.59 43.66 43.55 43.7 43.51L44.51 44.4L43.7 43.51C45.61 41.78 46.12 39.95 45.78 38.57C45.65 38.07 45.41 37.63 45.09 37.28C44.77 36.93 44.37 36.68 43.91 36.54C42.76 36.19 41.25 36.58 39.73 38.13C39.38 38.48 38.46 39.43 37.56 40.3C36.71 41.11 35.84 41.9 35.27 42.23C35.08 42.36 34.85 42.44 34.61 42.44L33.65 41.99L33.31 37.25C33.2 28.37 33.03 19.64 32.93 10.73C32.92 9.94002 32.59 9.22002 32.05 8.70002C31.52 8.18002 30.79 7.87002 30 7.88002C29.21 7.89002 28.49 8.22002 27.97 8.75002C27.45 9.28002 27.13 10.01 27.14 10.8L27.35 28.08L24.86 28.11L24.58 5.27002C24.57 4.48002 24.24 3.76002 23.71 3.24002C23.18 2.72002 22.45 2.40002 21.66 2.41002C20.87 2.42002 20.15 2.75002 19.63 3.29002C19.11 3.82002 18.79 4.55002 18.8 5.34002L19.07 28.17L16.52 28.2L16.31 10.86C16.3 10.07 15.97 9.35002 15.43 8.83002C14.91 8.31002 14.18 8.00002 13.39 8.01002C12.6 8.02002 11.88 8.35002 11.36 8.89002C10.84 9.42002 10.52 10.15 10.53 10.94L10.74 28.28L8.33001 28.3L8.19001 16.83C8.18001 16.04 7.85001 15.32 7.32001 14.8C6.79001 14.28 6.06001 13.96 5.27001 13.97C4.48001 13.98 3.76001 14.31 3.24001 14.85C2.72001 15.38 2.41001 16.11 2.42001 16.9L2.56001 28.37L2.58001 30.15L2.67001 37.36C2.67001 37.44 2.67001 37.52 2.67001 37.61L2.79001 47.55C2.82001 50.22 5.62001 54.98 6.83001 57.56C6.93001 57.77 6.96001 58 6.93001 58.21L3.35001 83.45C3.45001 83.81 3.62001 84.15 3.84001 84.49C5.21001 86.55 8.54001 88.05 12.52 88.85C16.64 89.68 21.38 89.72 25.39 88.83C27.45 88.37 29.3 87.67 30.75 86.71C34.07 84.5 33.74 82.45 33.24 79.32C33.18 78.92 33.11 78.49 33.01 77.8L30.39 57.77ZM50.39 83.23C48.61 77.41 47.44 66.66 46.95 64.2C46.94 64.14 46.93 64.09 46.92 64.03L45.76 64.34L46.92 64.03C46.25 61.54 46.81 59.73 47.85 58.76C48.23 58.41 48.67 58.16 49.13 58.05C49.59 57.93 50.07 57.93 50.52 58.06C51.67 58.39 52.74 59.53 53.17 61.66C53.27 62.15 53.53 63.44 53.82 64.66C54.09 65.8 54.41 66.93 54.71 67.52C54.8 67.74 54.96 67.92 55.15 68.05L56.2 68.19L59.06 64.39C63.95 56.98 68.82 49.73 73.73 42.3C74.17 41.64 74.84 41.21 75.56 41.07C76.29 40.92 77.07 41.05 77.73 41.49C78.39 41.93 78.82 42.6 78.96 43.32C79.11 44.05 78.98 44.83 78.54 45.49L69.02 59.9L71.1 61.27L83.69 42.22C84.13 41.56 84.8 41.13 85.52 40.99C86.25 40.84 87.03 40.97 87.69 41.4C88.35 41.84 88.78 42.51 88.92 43.23C89.07 43.96 88.94 44.74 88.5 45.4L75.93 64.46L78.06 65.86L87.62 51.39C88.06 50.73 88.73 50.3 89.45 50.16C90.18 50.01 90.96 50.14 91.62 50.58C92.28 51.02 92.71 51.69 92.85 52.41C93 53.14 92.87 53.92 92.43 54.58L82.87 69.05L84.88 70.38L91.2 60.81C91.64 60.15 92.31 59.72 93.03 59.58C93.76 59.43 94.54 59.56 95.2 60C95.86 60.44 96.29 61.11 96.43 61.84C96.58 62.57 96.45 63.35 96.01 64.01L89.69 73.58L88.71 75.07L84.73 81.09C84.69 81.16 84.64 81.23 84.6 81.3L79.12 89.59C77.65 91.82 72.72 94.3 70.31 95.82C70.11 95.94 69.97 96.12 69.87 96.32L59.2 119.47C58.92 119.72 58.59 119.92 58.23 120.08C55.97 121.07 52.35 120.53 48.57 119.05C44.66 117.52 40.65 114.99 37.75 112.07C36.27 110.57 35.09 108.98 34.39 107.39C32.79 103.74 34.18 102.19 36.29 99.82C36.56 99.51 36.85 99.2 37.31 98.66L50.39 83.23Z" fill="currentColor"/>
</g>
<defs>
<clipPath id="clip0_85_14">
<rect width="98.92" height="122.88" fill="white"/>
</clipPath>
</defs>
</svg>
