<svg width="91" height="91" viewBox="0 0 91 91" fill="none" xmlns="http://www.w3.org/2000/svg">
<path d="M17.5873 33C16.747 33 16.1057 33.2322 15.6634 33.6966C15.2211 34.161 15 34.8134 15 35.6537V54.3622C15 55.2025 15.2211 55.8439 15.6634 56.2861C16.1057 56.7505 16.747 56.9827 17.5873 56.9827C18.4056 56.9827 19.0358 56.7505 19.4781 56.2861C19.9204 55.8439 20.1415 55.2025 20.1415 54.3622V46.5007H20.2079L29.0314 55.7222C29.4073 56.1203 29.7943 56.4188 30.1924 56.6178C30.6125 56.839 31.088 56.9496 31.6187 56.9496C32.3927 56.9496 32.9456 56.7505 33.2773 56.3525C33.6311 55.9544 33.7859 55.49 33.7417 54.9593C33.6975 54.4285 33.4542 53.931 33.0119 53.4666L24.1552 44.4109L24.1884 46.6333L33.4763 36.7152C33.9849 36.1623 34.2393 35.5984 34.2393 35.0234C34.2614 34.4485 34.0734 33.962 33.6753 33.5639C33.2994 33.188 32.7355 33 31.9836 33C31.3423 33 30.8226 33.1327 30.4246 33.3981C30.0486 33.6634 29.6285 34.0504 29.1641 34.559L20.2079 43.9796H20.1415V35.6537C20.1415 34.8134 19.9204 34.161 19.4781 33.6966C19.0579 33.2322 18.4277 33 17.5873 33Z" fill="white"/>
<path d="M40.4581 33.2985C39.6177 33.2985 38.9654 33.5307 38.501 33.9951C38.0587 34.4595 37.8375 35.1008 37.8375 35.9191V54.13C37.8375 54.9925 38.0587 55.6448 38.501 56.0871C38.9432 56.5294 39.5845 56.7505 40.4249 56.7505C41.2431 56.7505 41.8734 56.5294 42.3156 56.0871C42.7579 55.6448 42.9791 54.9925 42.9791 54.13V37.644H51.8689C52.5766 37.644 53.1184 37.456 53.4943 37.0801C53.8924 36.7041 54.0914 36.1734 54.0914 35.4878C54.0914 34.7802 53.8924 34.2384 53.4943 33.8625C53.1184 33.4865 52.5766 33.2985 51.8689 33.2985H40.4581Z" fill="white"/>
<path d="M63.0409 33C62.3332 33 61.7472 33.1548 61.2828 33.4644C60.8405 33.7961 60.4756 34.2937 60.1881 34.9571L51.829 53.5329C51.5194 54.1964 51.431 54.7824 51.5636 55.291C51.6963 55.8217 51.9728 56.2308 52.3929 56.5183C52.8131 56.8279 53.3217 56.9827 53.9188 56.9827C54.6707 56.9827 55.2456 56.8058 55.6437 56.452C56.0417 56.1203 56.3735 55.6227 56.6388 54.9593L63.9696 38.0088H62.3111L69.6419 54.9925C69.9294 55.6559 70.2722 56.1534 70.6702 56.4852C71.0683 56.8169 71.6211 56.9827 72.3288 56.9827C72.9258 56.9827 73.4124 56.8279 73.7883 56.5183C74.1863 56.2308 74.4296 55.8217 74.5181 55.291C74.6286 54.7824 74.5402 54.1964 74.2527 53.5329L65.8936 34.9571C65.584 34.2937 65.208 33.7961 64.7658 33.4644C64.3456 33.1548 63.7706 33 63.0409 33Z" fill="white"/>
</svg>
