<svg width="71" height="37" viewBox="0 0 71 37" fill="none" xmlns="http://www.w3.org/2000/svg">
<path d="M7.58735 6.00001C6.74701 6.00001 6.1057 6.2322 5.66342 6.6966C5.22114 7.161 5 7.81336 5 8.6537V27.3622C5 28.2025 5.22114 28.8439 5.66342 29.2861C6.1057 29.7505 6.74701 29.9827 7.58735 29.9827C8.40557 29.9827 9.03582 29.7505 9.4781 29.2861C9.92038 28.8439 10.1415 28.2025 10.1415 27.3622V19.5007H10.2079L19.0314 28.7222C19.4073 29.1203 19.7943 29.4188 20.1924 29.6178C20.6125 29.839 21.088 29.9496 21.6187 29.9496C22.3927 29.9496 22.9456 29.7505 23.2773 29.3525C23.6311 28.9544 23.7859 28.49 23.7417 27.9593C23.6975 27.4285 23.4542 26.931 23.0119 26.4666L14.1552 17.4109L14.1884 19.6333L23.4763 9.71517C23.9849 9.16232 24.2393 8.59841 24.2393 8.02344C24.2614 7.44848 24.0734 6.96197 23.6753 6.56392C23.2994 6.18798 22.7355 6.00001 21.9836 6.00001C21.3423 6.00001 20.8226 6.13269 20.4246 6.39806C20.0486 6.66343 19.6285 7.05042 19.1641 7.55905L10.2079 16.9796H10.1415V8.6537C10.1415 7.81336 9.92038 7.161 9.4781 6.6966C9.05793 6.2322 8.42768 6.00001 7.58735 6.00001Z" fill="currentColor"/>
<path d="M30.4581 6.29855C29.6177 6.29855 28.9654 6.53074 28.501 6.99514C28.0587 7.45954 27.8375 8.10084 27.8375 8.91906V27.13C27.8375 27.9925 28.0587 28.6448 28.501 29.0871C28.9432 29.5294 29.5845 29.7505 30.4249 29.7505C31.2431 29.7505 31.8734 29.5294 32.3156 29.0871C32.7579 28.6448 32.9791 27.9925 32.9791 27.13V10.644H41.8689C42.5766 10.644 43.1184 10.456 43.4943 10.0801C43.8924 9.70411 44.0914 9.17338 44.0914 8.48784C44.0914 7.78019 43.8924 7.2384 43.4943 6.86246C43.1184 6.48652 42.5766 6.29855 41.8689 6.29855H30.4581Z" fill="currentColor"/>
<path d="M53.0409 6.00001C52.3332 6.00001 51.7472 6.1548 51.2828 6.4644C50.8405 6.79611 50.4756 7.29368 50.1881 7.9571L41.829 26.5329C41.5194 27.1964 41.431 27.7824 41.5636 28.291C41.6963 28.8217 41.9728 29.2308 42.3929 29.5183C42.8131 29.8279 43.3217 29.9827 43.9188 29.9827C44.6707 29.9827 45.2456 29.8058 45.6437 29.452C46.0417 29.1203 46.3735 28.6227 46.6388 27.9593L53.9696 11.0088H52.3111L59.6419 27.9925C59.9294 28.6559 60.2722 29.1534 60.6702 29.4852C61.0683 29.8169 61.6211 29.9827 62.3288 29.9827C62.9258 29.9827 63.4124 29.8279 63.7883 29.5183C64.1863 29.2308 64.4296 28.8217 64.5181 28.291C64.6286 27.7824 64.5402 27.1964 64.2527 26.5329L55.8936 7.9571C55.584 7.29368 55.208 6.79611 54.7658 6.4644C54.3456 6.1548 53.7706 6.00001 53.0409 6.00001Z" fill="currentColor"/>
</svg>
