<svg width="91" height="91" viewBox="0 0 91 91" fill="none" xmlns="http://www.w3.org/2000/svg">
<path d="M24.5369 60.7714C23.8293 60.7714 23.2432 60.6166 22.7788 60.307C22.3366 59.9753 21.9717 59.4777 21.6842 58.8143L13.3251 40.2385C13.0155 39.5751 12.927 38.989 13.0597 38.4804C13.1924 37.9497 13.4688 37.5406 13.889 37.2531C14.3092 36.9435 14.8178 36.7887 15.4149 36.7887C16.1667 36.7887 16.7417 36.9656 17.1398 37.3194C17.5378 37.6511 17.8695 38.1487 18.1349 38.8121L25.4657 55.7626H23.8072L31.138 38.779C31.4255 38.1155 31.7682 37.618 32.1663 37.2863C32.5643 36.9546 33.1172 36.7887 33.8248 36.7887C34.4219 36.7887 34.9084 36.9435 35.2844 37.2531C35.6824 37.5406 35.9257 37.9497 36.0141 38.4804C36.1247 38.989 36.0362 39.5751 35.7488 40.2385L27.3896 58.8143C27.08 59.4777 26.7041 59.9753 26.2618 60.307C25.8416 60.6166 25.2667 60.7714 24.5369 60.7714Z" fill="white"/>
<path d="M41.5392 60.4729C40.6989 60.4729 40.0465 60.2407 39.5821 59.7763C39.1398 59.3119 38.9187 58.6706 38.9187 57.8524V39.6414C38.9187 38.779 39.1398 38.1266 39.5821 37.6843C40.0244 37.242 40.6657 37.0209 41.506 37.0209C42.3242 37.0209 42.9545 37.242 43.3968 37.6843C43.8391 38.1266 44.0602 38.779 44.0602 39.6414V56.1275H52.9501C53.6577 56.1275 54.1995 56.3154 54.5754 56.6914C54.9735 57.0673 55.1725 57.598 55.1725 58.2836C55.1725 58.9912 54.9735 59.533 54.5754 59.909C54.1995 60.2849 53.6577 60.4729 52.9501 60.4729H41.5392Z" fill="white"/>
<path d="M60.5211 60.7714C59.6808 60.7714 59.0395 60.5392 58.5972 60.0748C58.1549 59.6104 57.9338 58.9581 57.9338 58.1177V39.4092C57.9338 38.5689 58.1549 37.9276 58.5972 37.4853C59.0395 37.0209 59.6808 36.7887 60.5211 36.7887C61.3393 36.7887 61.9696 37.0209 62.4119 37.4853C62.8541 37.9276 63.0753 38.5689 63.0753 39.4092V47.2708H63.1416L71.9651 38.0492C72.3411 37.6511 72.7281 37.3526 73.1261 37.1536C73.5463 36.9324 74.0217 36.8219 74.5525 36.8219C75.3265 36.8219 75.8793 37.0209 76.211 37.4189C76.5649 37.817 76.7197 38.2814 76.6754 38.8121C76.6312 39.3429 76.388 39.8404 75.9457 40.3048L67.089 49.3606L67.1222 47.1381L76.4101 57.0563C76.9187 57.6091 77.173 58.173 77.173 58.748C77.1951 59.3229 77.0071 59.8095 76.6091 60.2075C76.2332 60.5834 75.6692 60.7714 74.9174 60.7714C74.2761 60.7714 73.7564 60.6387 73.3583 60.3734C72.9824 60.108 72.5622 59.721 72.0978 59.2124L63.1416 49.7918H63.0753V58.1177C63.0753 58.9581 62.8541 59.6104 62.4119 60.0748C61.9917 60.5392 61.3614 60.7714 60.5211 60.7714Z" fill="white"/>
<path d="M17.4052 6.00001C16.5649 6.00001 15.9236 6.2322 15.4813 6.6966C15.039 7.161 14.8179 7.81336 14.8179 8.6537V27.3622C14.8179 28.2025 15.039 28.8439 15.4813 29.2861C15.9236 29.7505 16.5649 29.9827 17.4052 29.9827C18.2234 29.9827 18.8537 29.7505 19.296 29.2861C19.7383 28.8439 19.9594 28.2025 19.9594 27.3622V19.5007H20.0257L28.8493 28.7222C29.2252 29.1203 29.6122 29.4188 30.0102 29.6178C30.4304 29.839 30.9059 29.9496 31.4366 29.9496C32.2106 29.9496 32.7634 29.7505 33.0952 29.3525C33.449 28.9544 33.6038 28.49 33.5596 27.9593C33.5153 27.4285 33.2721 26.931 32.8298 26.4666L23.9731 17.4109L24.0063 19.6333L33.2942 9.71517C33.8028 9.16232 34.0571 8.59841 34.0571 8.02344C34.0792 7.44848 33.8913 6.96197 33.4932 6.56392C33.1173 6.18798 32.5534 6.00001 31.8015 6.00001C31.1602 6.00001 30.6405 6.13269 30.2424 6.39806C29.8665 6.66343 29.4463 7.05042 28.9819 7.55905L20.0257 16.9796H19.9594V8.6537C19.9594 7.81336 19.7383 7.161 19.296 6.6966C18.8758 6.2322 18.2456 6.00001 17.4052 6.00001Z" fill="white"/>
<path d="M40.2759 6.29855C39.4356 6.29855 38.7832 6.53074 38.3188 6.99514C37.8765 7.45954 37.6554 8.10084 37.6554 8.91906V27.13C37.6554 27.9925 37.8765 28.6448 38.3188 29.0871C38.7611 29.5294 39.4024 29.7505 40.2428 29.7505C41.061 29.7505 41.6912 29.5294 42.1335 29.0871C42.5758 28.6448 42.7969 27.9925 42.7969 27.13V10.644H51.6868C52.3944 10.644 52.9362 10.456 53.3122 10.0801C53.7102 9.70411 53.9093 9.17338 53.9093 8.48784C53.9093 7.78019 53.7102 7.23839 53.3122 6.86246C52.9362 6.48652 52.3944 6.29855 51.6868 6.29855H40.2759Z" fill="white"/>
<path d="M62.8587 6.00001C62.1511 6.00001 61.5651 6.1548 61.1007 6.4644C60.6584 6.79611 60.2935 7.29368 60.006 7.9571L51.6469 26.5329C51.3373 27.1964 51.2488 27.7824 51.3815 28.291C51.5142 28.8217 51.7906 29.2308 52.2108 29.5183C52.631 29.8279 53.1396 29.9827 53.7367 29.9827C54.4885 29.9827 55.0635 29.8058 55.4616 29.452C55.8596 29.1203 56.1913 28.6227 56.4567 27.9593L63.7875 11.0088H62.129L69.4598 27.9925C69.7473 28.6559 70.09 29.1534 70.4881 29.4852C70.8861 29.8169 71.439 29.9827 72.1466 29.9827C72.7437 29.9827 73.2302 29.8279 73.6062 29.5183C74.0042 29.2308 74.2475 28.8217 74.3359 28.291C74.4465 27.7824 74.358 27.1964 74.0706 26.5329L65.7114 7.9571C65.4018 7.29368 65.0259 6.79611 64.5836 6.4644C64.1635 6.1548 63.5885 6.00001 62.8587 6.00001Z" fill="white"/>
<path d="M15.729 85.594C15.4868 85.594 15.2965 85.5305 15.1581 85.4037C15.0312 85.2653 14.9678 85.0692 14.9678 84.8155V74.055C14.9678 73.8013 15.0312 73.611 15.1581 73.4841C15.2965 73.3457 15.4925 73.2765 15.7463 73.2765H22.0261C22.2221 73.2765 22.3721 73.3284 22.4759 73.4322C22.5797 73.536 22.6316 73.6802 22.6316 73.8647C22.6316 74.0608 22.5797 74.2107 22.4759 74.3145C22.3721 74.4183 22.2221 74.4702 22.0261 74.4702H16.3864V78.726H21.6628C21.8588 78.726 22.0088 78.7779 22.1126 78.8817C22.2279 78.9854 22.2856 79.1296 22.2856 79.3141C22.2856 79.5102 22.2279 79.6601 22.1126 79.7639C22.0088 79.8677 21.8588 79.9196 21.6628 79.9196H16.3864V84.8155C16.3864 85.3345 16.1672 85.594 15.729 85.594Z" fill="white"/>
<path d="M27.4287 85.6286C26.6099 85.6286 25.9006 85.4498 25.3009 85.0923C24.7011 84.7347 24.2341 84.233 23.8996 83.5872C23.5767 82.9298 23.4152 82.1571 23.4152 81.269C23.4152 80.6001 23.5075 80.0004 23.692 79.4698C23.8765 78.9278 24.1476 78.4665 24.5051 78.0859C24.8626 77.7053 25.2836 77.4169 25.768 77.2209C26.2639 77.0133 26.8175 76.9095 27.4287 76.9095C28.2476 76.9095 28.9569 77.0882 29.5566 77.4458C30.1563 77.8033 30.6177 78.3108 30.9406 78.9681C31.2751 79.614 31.4423 80.381 31.4423 81.269C31.4423 81.9379 31.35 82.5377 31.1655 83.0682C30.981 83.5987 30.7099 84.06 30.3524 84.4522C29.9949 84.8328 29.5681 85.1269 29.0722 85.3345C28.5878 85.5305 28.04 85.6286 27.4287 85.6286ZM27.4287 84.5041C27.9477 84.5041 28.4033 84.3772 28.7954 84.1235C29.1876 83.8697 29.4874 83.5007 29.695 83.0163C29.9141 82.5319 30.0237 81.9495 30.0237 81.269C30.0237 80.2195 29.7873 79.4179 29.3144 78.8643C28.8531 78.3108 28.2245 78.034 27.4287 78.034C26.8982 78.034 26.4369 78.1608 26.0448 78.4146C25.6642 78.6568 25.3643 79.02 25.1452 79.5044C24.9376 79.9773 24.8338 80.5655 24.8338 81.269C24.8338 82.307 25.0702 83.1086 25.5431 83.6737C26.0159 84.2273 26.6445 84.5041 27.4287 84.5041Z" fill="white"/>
<path d="M37.0416 85.6286C36.2227 85.6286 35.5135 85.4498 34.9137 85.0923C34.314 84.7347 33.8469 84.233 33.5125 83.5872C33.1895 82.9298 33.0281 82.1571 33.0281 81.269C33.0281 80.6001 33.1203 80.0004 33.3049 79.4698C33.4894 78.9278 33.7604 78.4665 34.1179 78.0859C34.4755 77.7053 34.8964 77.4169 35.3808 77.2209C35.8768 77.0133 36.4303 76.9095 37.0416 76.9095C37.8605 76.9095 38.5698 77.0882 39.1695 77.4458C39.7692 77.8033 40.2305 78.3108 40.5535 78.9681C40.8879 79.614 41.0552 80.381 41.0552 81.269C41.0552 81.9379 40.9629 82.5377 40.7784 83.0682C40.5938 83.5987 40.3228 84.06 39.9653 84.4522C39.6077 84.8328 39.181 85.1269 38.6851 85.3345C38.2007 85.5305 37.6529 85.6286 37.0416 85.6286ZM37.0416 84.5041C37.5606 84.5041 38.0162 84.3772 38.4083 84.1235C38.8004 83.8697 39.1003 83.5007 39.3079 83.0163C39.527 82.5319 39.6366 81.9495 39.6366 81.269C39.6366 80.2195 39.4001 79.4179 38.9273 78.8643C38.466 78.3108 37.8374 78.034 37.0416 78.034C36.5111 78.034 36.0498 78.1608 35.6576 78.4146C35.277 78.6568 34.9772 79.02 34.758 79.5044C34.5504 79.9773 34.4466 80.5655 34.4466 81.269C34.4466 82.307 34.6831 83.1086 35.1559 83.6737C35.6288 84.2273 36.2573 84.5041 37.0416 84.5041Z" fill="white"/>
<path d="M46.4489 85.6286C45.7915 85.6286 45.2379 85.5132 44.7881 85.2826C44.3499 85.0404 44.0212 84.6944 43.802 84.2446C43.5829 83.7833 43.4733 83.2239 43.4733 82.5665V78.1551H42.3143C42.1182 78.1551 41.9683 78.1089 41.8645 78.0167C41.7607 77.9129 41.7088 77.7745 41.7088 77.6015C41.7088 77.4285 41.7607 77.2958 41.8645 77.2036C41.9683 77.1113 42.1182 77.0652 42.3143 77.0652H43.4733V75.0757C43.4733 74.845 43.5368 74.672 43.6636 74.5567C43.7905 74.4298 43.9635 74.3664 44.1826 74.3664C44.4018 74.3664 44.569 74.4298 44.6843 74.5567C44.8112 74.672 44.8746 74.845 44.8746 75.0757V77.0652H47.0544C47.2505 77.0652 47.4004 77.1113 47.5042 77.2036C47.608 77.2958 47.6599 77.4285 47.6599 77.6015C47.6599 77.7745 47.608 77.9129 47.5042 78.0167C47.4004 78.1089 47.2505 78.1551 47.0544 78.1551H44.8746V82.4281C44.8746 83.0855 45.013 83.5872 45.2898 83.9332C45.5666 84.2676 46.0164 84.4349 46.6392 84.4349C46.8583 84.4349 47.0429 84.4118 47.1928 84.3657C47.3542 84.3195 47.4869 84.2965 47.5907 84.2965C47.6945 84.2849 47.781 84.3195 47.8502 84.4003C47.9194 84.481 47.954 84.6194 47.954 84.8155C47.954 84.9539 47.9251 85.0807 47.8675 85.1961C47.8213 85.3114 47.7348 85.3921 47.608 85.4383C47.4696 85.4844 47.285 85.5248 47.0544 85.5594C46.8353 85.6055 46.6334 85.6286 46.4489 85.6286Z" fill="white"/>
<path d="M53.4807 85.6286C52.7195 85.6286 52.0621 85.4325 51.5085 85.0404C50.9665 84.6482 50.6032 84.1235 50.4187 83.4661L50.6089 83.2758V84.8674C50.6089 85.098 50.5455 85.2768 50.4187 85.4037C50.3033 85.5305 50.1361 85.594 49.917 85.594C49.6863 85.594 49.5133 85.5305 49.398 85.4037C49.2826 85.2768 49.225 85.098 49.225 84.8674V73.8647C49.225 73.6341 49.2826 73.4611 49.398 73.3457C49.5133 73.2189 49.6863 73.1554 49.917 73.1554C50.1361 73.1554 50.3091 73.2189 50.436 73.3457C50.5628 73.4611 50.6262 73.6341 50.6262 73.8647V79.02H50.4187C50.6147 78.3742 50.9838 77.861 51.5258 77.4804C52.0679 77.0998 52.7195 76.9095 53.4807 76.9095C54.2419 76.9095 54.8993 77.0882 55.4529 77.4458C56.0065 77.7918 56.4332 78.2935 56.7331 78.9508C57.0445 79.5967 57.2002 80.3694 57.2002 81.269C57.2002 82.1571 57.0445 82.9298 56.7331 83.5872C56.4332 84.233 56.0007 84.7347 55.4356 85.0923C54.882 85.4498 54.2304 85.6286 53.4807 85.6286ZM53.1866 84.5041C53.7171 84.5041 54.1727 84.3772 54.5533 84.1235C54.9454 83.8697 55.2453 83.5007 55.4529 83.0163C55.672 82.5319 55.7816 81.9495 55.7816 81.269C55.7816 80.2195 55.5451 79.4179 55.0723 78.8643C54.611 78.3108 53.9824 78.034 53.1866 78.034C52.6676 78.034 52.2121 78.1608 51.8199 78.4146C51.4278 78.6568 51.1222 79.02 50.903 79.5044C50.6954 79.9773 50.5916 80.5655 50.5916 81.269C50.5916 82.307 50.8281 83.1086 51.3009 83.6737C51.7738 84.2273 52.4024 84.5041 53.1866 84.5041Z" fill="white"/>
<path d="M61.9577 85.6286C61.3811 85.6286 60.8621 85.519 60.4008 85.2999C59.951 85.0692 59.5934 84.7578 59.3282 84.3657C59.0629 83.9735 58.9303 83.5353 58.9303 83.0509C58.9303 82.4281 59.086 81.9379 59.3974 81.5804C59.7203 81.2229 60.2451 80.9692 60.9716 80.8192C61.7098 80.6693 62.7132 80.5943 63.9818 80.5943H64.7603V81.5112H63.9991C63.0649 81.5112 62.3268 81.5573 61.7847 81.6496C61.2542 81.7303 60.8794 81.8745 60.6603 82.0821C60.4527 82.2897 60.3489 82.5838 60.3489 82.9644C60.3489 83.4373 60.5103 83.8236 60.8332 84.1235C61.1677 84.4233 61.6175 84.5733 62.1826 84.5733C62.644 84.5733 63.0476 84.4637 63.3936 84.2446C63.7511 84.0254 64.0279 83.7256 64.224 83.345C64.4316 82.9644 64.5354 82.5261 64.5354 82.0302V80.058C64.5354 79.343 64.3912 78.8298 64.1029 78.5184C63.8146 78.1954 63.3417 78.034 62.6843 78.034C62.2807 78.034 61.877 78.0859 61.4733 78.1897C61.0697 78.2935 60.643 78.4607 60.1932 78.6914C60.0317 78.7721 59.8933 78.8009 59.778 78.7779C59.6626 78.7433 59.5704 78.6798 59.5012 78.5876C59.432 78.4953 59.3916 78.3915 59.3801 78.2762C59.3685 78.1493 59.3916 78.0282 59.4493 77.9129C59.5185 77.7975 59.6223 77.7053 59.7607 77.6361C60.2681 77.3823 60.7698 77.1978 61.2657 77.0825C61.7617 76.9671 62.2345 76.9095 62.6843 76.9095C63.4109 76.9095 64.0106 77.0306 64.4835 77.2728C64.9564 77.5034 65.3081 77.861 65.5388 78.3454C65.7695 78.8182 65.8848 79.4295 65.8848 80.1791V84.8674C65.8848 85.098 65.8271 85.2768 65.7118 85.4037C65.608 85.5305 65.4523 85.594 65.2447 85.594C65.0256 85.594 64.8583 85.5305 64.743 85.4037C64.6277 85.2768 64.57 85.098 64.57 84.8674V83.518H64.7257C64.6334 83.9562 64.4547 84.3311 64.1894 84.6425C63.9357 84.9539 63.6185 85.1961 63.2379 85.3691C62.8573 85.5421 62.4306 85.6286 61.9577 85.6286Z" fill="white"/>
<path d="M71.0448 85.6286C70.2145 85.6286 69.5801 85.3748 69.1419 84.8674C68.7036 84.3599 68.4845 83.6333 68.4845 82.6876V73.8647C68.4845 73.6341 68.5421 73.4611 68.6575 73.3457C68.7728 73.2189 68.9458 73.1554 69.1765 73.1554C69.3956 73.1554 69.5686 73.2189 69.6955 73.3457C69.8223 73.4611 69.8858 73.6341 69.8858 73.8647V82.5838C69.8858 83.2066 70.0069 83.6737 70.2491 83.9851C70.5028 84.2849 70.8718 84.4349 71.3562 84.4349C71.46 84.4349 71.5523 84.4291 71.633 84.4176C71.7138 84.406 71.7945 84.4003 71.8752 84.4003C72.0021 84.3887 72.0886 84.4176 72.1347 84.4868C72.1924 84.556 72.2212 84.6944 72.2212 84.902C72.2212 85.1096 72.1751 85.2653 72.0828 85.3691C71.9906 85.4729 71.8406 85.5421 71.633 85.5767C71.5408 85.5882 71.4427 85.5997 71.3389 85.6113C71.2351 85.6228 71.1371 85.6286 71.0448 85.6286Z" fill="white"/>
<path d="M76.1638 85.6286C75.3334 85.6286 74.6991 85.3748 74.2608 84.8674C73.8226 84.3599 73.6035 83.6333 73.6035 82.6876V73.8647C73.6035 73.6341 73.6611 73.4611 73.7765 73.3457C73.8918 73.2189 74.0648 73.1554 74.2954 73.1554C74.5146 73.1554 74.6876 73.2189 74.8144 73.3457C74.9413 73.4611 75.0047 73.6341 75.0047 73.8647V82.5838C75.0047 83.2066 75.1258 83.6737 75.368 83.9851C75.6218 84.2849 75.9908 84.4349 76.4752 84.4349C76.579 84.4349 76.6713 84.4291 76.752 84.4176C76.8327 84.406 76.9135 84.4003 76.9942 84.4003C77.1211 84.3887 77.2076 84.4176 77.2537 84.4868C77.3114 84.556 77.3402 84.6944 77.3402 84.902C77.3402 85.1096 77.2941 85.2653 77.2018 85.3691C77.1095 85.4729 76.9596 85.5421 76.752 85.5767C76.6597 85.5882 76.5617 85.5997 76.4579 85.6113C76.3541 85.6228 76.2561 85.6286 76.1638 85.6286Z" fill="white"/>
</svg>
