<svg width="277" height="277" viewBox="0 0 277 277" fill="none" xmlns="http://www.w3.org/2000/svg">
<g clip-path="url(#clip0_189_189)">
<rect width="277" height="277" fill="#DCDCDC"/>
<path fill-rule="evenodd" clip-rule="evenodd" d="M54.3418 425.838L57.5964 415.532C59.0429 399.62 60.6702 390.037 62.4783 386.783C64.2864 383.528 64.2864 376.838 62.4783 366.712C47.6517 343.569 38.4303 329.104 34.8141 323.318C31.1979 317.532 29.2089 301.259 28.8473 274.498C24.1462 272.69 21.2532 270.701 20.1683 268.532C19.0835 266.362 23.2421 241.772 32.6444 194.76C35.899 184.997 44.2163 177.041 57.5964 170.893C70.9765 164.746 82.7292 157.875 92.8547 150.281L104.788 142.687C106.596 141.602 107.5 138.166 107.5 132.38C107.5 126.594 106.958 119.181 105.873 110.141L104.788 107.428C102.257 110.321 100.087 110.321 98.279 107.428C95.5668 103.089 92.3122 94.9524 92.8547 84.6461C93.2163 77.7752 95.0244 76.3288 98.279 80.3066C97.5558 66.9265 97.5558 57.5243 98.279 52.1C99.3639 43.9634 105.331 26.0631 127.571 23.3509C149.81 20.6387 162.829 34.1996 166.083 45.0483C169.338 55.897 169.88 74.8823 169.88 78.6793C169.88 82.4764 176.39 68.9155 175.305 84.6461C174.22 100.377 172.05 101.462 170.965 104.174C169.88 106.886 167.168 109.056 165.541 107.428C163.914 105.801 164.456 105.801 163.371 110.141C162.286 114.48 162.286 127.498 163.371 132.38C164.456 137.262 176.932 146.484 203.511 158.96C214.23 163.991 229.891 168.732 238.227 180.115C241.858 185.071 244.751 195.016 246.906 209.949C247.991 225.137 249.076 235.081 250.161 239.783C251.246 244.484 253.416 253.163 256.67 265.819C258.117 267.628 258.117 268.893 256.67 269.617C255.224 270.34 253.416 271.244 251.246 272.329C250.523 274.137 250.161 276.668 250.161 279.923C250.161 283.177 249.438 294.026 247.991 312.469L244.737 323.318L238.227 331.997L211.106 369.967V374.849L213.818 401.971C215.3 409.226 216.204 414.288 216.53 417.159C216.856 420.03 216.856 422.923 216.53 425.838H92.8547H54.3418ZM208.393 278.838L204.054 310.299V327.657L214.36 310.299C215.445 307.045 215.987 304.332 215.987 302.163C215.987 298.908 211.106 296.738 211.106 290.229C211.106 285.89 210.744 282.454 210.021 279.923L208.393 278.838ZM69.53 320.063V299.45L67.3602 290.229L64.648 297.281L63.0207 303.248C63.0207 306.864 63.5632 309.395 64.648 310.842C65.7329 312.288 67.3602 315.362 69.53 320.063Z" fill="black"/>
</g>
<defs>
<clipPath id="clip0_189_189">
<rect width="277" height="277" fill="white"/>
</clipPath>
</defs>
</svg>
