<svg width="126" height="126" viewBox="0 0 126 126" fill="none" xmlns="http://www.w3.org/2000/svg">
<path d="M123.999 100.45V105.137H114.81C116.326 90.6641 106.999 77.706 91.9292 77.5695H78.0081C62.8921 77.707 53.5643 90.6641 55.1275 105.137H45.9383C43.963 85.9322 58.2975 68.2438 78.0086 68.3803H91.9297C109.619 68.3803 124 82.7609 124 100.451L123.999 100.45ZM83.5192 64.0609C112.649 63.142 112.649 20.9189 83.5192 20C54.3895 20.9189 54.3895 63.142 83.5192 64.0609ZM46.0746 68.3333H28.9372C12.7637 68.3333 1.50617 82.7139 3.16128 98.382H12.3505V94.1096C12.3505 84.9666 19.7942 77.5228 28.9372 77.5228H46.0746V68.3333ZM35.1399 64.0609C55.6783 63.4178 55.6321 33.6446 35.1399 33.0014C14.6016 33.6444 14.6016 63.4176 35.1399 64.0609Z" fill="currentColor"/>
</svg>
