<svg width="66" height="66" viewBox="0 0 66 66" fill="none" xmlns="http://www.w3.org/2000/svg">
<path d="M29.7716 39.358V39.1572C29.7939 37.0257 30.0171 35.3294 30.4412 34.0683C30.8652 32.8073 31.4678 31.7862 32.249 31.005C33.0302 30.2238 33.9676 29.504 35.0613 28.8456C35.7197 28.4439 36.3112 27.9696 36.8357 27.4227C37.3602 26.8648 37.7731 26.2231 38.0744 25.4977C38.3869 24.7723 38.5431 23.9688 38.5431 23.0872C38.5431 21.9935 38.2864 21.045 37.7731 20.2415C37.2597 19.438 36.5734 18.8186 35.7141 18.3834C34.8548 17.9482 33.9007 17.7305 32.8517 17.7305C31.9366 17.7305 31.0549 17.9203 30.2068 18.2997C29.3587 18.6791 28.65 19.2762 28.0809 20.0908C27.5117 20.9055 27.1825 21.9712 27.0932 23.2881H22.8749C22.9642 21.3909 23.4552 19.7672 24.348 18.4169C25.2519 17.0665 26.4404 16.0343 27.9135 15.32C29.3977 14.6058 31.0438 14.2487 32.8517 14.2487C34.8158 14.2487 36.5232 14.6393 37.974 15.4205C39.4359 16.2017 40.563 17.273 41.3553 18.6345C42.1588 19.996 42.5606 21.5472 42.5606 23.2881C42.5606 24.5156 42.3709 25.626 41.9914 26.6192C41.6232 27.6125 41.0875 28.4997 40.3844 29.2808C39.6925 30.062 38.8556 30.7539 37.8735 31.3565C36.8915 31.9703 36.1047 32.6176 35.5132 33.2983C34.9218 33.9679 34.4921 34.7658 34.2243 35.6921C33.9565 36.6183 33.8114 37.7734 33.7891 39.1572V39.358H29.7716ZM31.9142 49.2679C31.0884 49.2679 30.3798 48.9721 29.7883 48.3807C29.1968 47.7892 28.9011 47.0806 28.9011 46.2547C28.9011 45.4289 29.1968 44.7203 29.7883 44.1288C30.3798 43.5374 31.0884 43.2416 31.9142 43.2416C32.7401 43.2416 33.4487 43.5374 34.0402 44.1288C34.6316 44.7203 34.9274 45.4289 34.9274 46.2547C34.9274 46.8016 34.7879 47.3038 34.5089 47.7613C34.241 48.2188 33.8783 48.5871 33.4208 48.8661C32.9744 49.1339 32.4722 49.2679 31.9142 49.2679Z" fill="currentColor"/>
</svg>