<svg width="29" height="22" viewBox="0 0 29 22" fill="none" xmlns="http://www.w3.org/2000/svg">
<path d="M28.1057 -7.64716e-06L28.1057 6.59948C28.1057 8.43267 27.7487 10.2852 27.0347 12.1569C26.3015 14.048 25.3559 15.804 24.1981 17.425C23.021 19.0652 21.8053 20.4159 20.551 21.4773L14.5305 18.1775C15.5725 16.4794 16.4022 14.7041 17.0197 12.8516C17.6372 11.0184 17.9363 8.94403 17.917 6.62843L17.917 -6.75644e-06L28.1057 -7.64716e-06ZM13.5753 -6.37687e-06L13.5753 6.59948C13.5753 8.43267 13.2183 10.2852 12.5043 12.1569C11.771 14.048 10.8255 15.804 9.66768 17.425C8.49058 19.0652 7.27488 20.4159 6.02059 21.4773L9.9763e-06 18.1775C1.04203 16.4794 1.87179 14.7041 2.48929 12.8516C3.10679 11.0184 3.40588 8.94404 3.38659 6.62843L3.38659 -5.48614e-06L13.5753 -6.37687e-06Z" fill="currentColor"/>
</svg>
