<svg width="29" height="22" viewBox="0 0 29 22" fill="none" xmlns="http://www.w3.org/2000/svg">
<path d="M0 21.4773V14.8778C0 13.0446 0.35699 11.1921 1.07097 9.32032C1.80425 7.42924 2.74979 5.67324 3.90759 4.05231C5.08469 2.41209 6.30039 1.06132 7.55467 0L13.5753 3.29974C12.5332 4.99785 11.7035 6.77315 11.086 8.62564C10.4685 10.4588 10.1694 12.5332 10.1887 14.8488V21.4773H0ZM14.5304 21.4773V14.8778C14.5304 13.0446 14.8874 11.1921 15.6014 9.32032C16.3347 7.42924 17.2802 5.67324 18.438 4.05231C19.6151 2.41209 20.8308 1.06132 22.0851 0L28.1057 3.29974C27.0637 4.99785 26.2339 6.77315 25.6164 8.62564C24.9989 10.4588 24.6998 12.5332 24.7191 14.8488V21.4773H14.5304Z" fill="currentColor"/>
</svg>
