<svg width="231" height="231" viewBox="0 0 231 231" fill="none" xmlns="http://www.w3.org/2000/svg">
<g clip-path="url(#clip0_310_378)">
<path d="M228.579 83.315L196.432 42.057C188.615 32.025 176.838 26.272 164.12 26.272H142.916C139.977 26.272 137.351 28.108 136.342 30.869C133.085 39.778 124.52 45.764 115.029 45.764C105.538 45.764 96.9739 39.778 93.7159 30.869C92.7069 28.108 90.0809 26.272 87.1419 26.272H65.9369C53.2199 26.272 41.4419 32.025 33.6249 42.058L1.47889 83.315C0.0818917 85.108 -0.358108 87.467 0.299892 89.643C0.957892 91.819 2.63089 93.54 4.78789 94.258L49.3459 109.103V196.785C49.3459 200.651 52.4799 203.785 56.3459 203.785H173.712C177.578 203.785 180.712 200.651 180.712 196.785V109.103L225.27 94.258C227.427 93.54 229.1 91.819 229.758 89.643C230.416 87.467 229.976 85.108 228.579 83.315ZM180.712 94.347V84.057C180.712 80.191 177.578 77.057 173.712 77.057C169.846 77.057 166.712 80.191 166.712 84.057V189.785H63.3449V84.057C63.3449 80.191 60.2109 77.057 56.3449 77.057C52.4789 77.057 49.3449 80.191 49.3449 84.057V94.347L18.6089 84.107L44.6679 50.663C49.8139 44.059 57.5649 40.272 65.9369 40.272H82.6179C88.9129 52.104 101.379 59.763 115.028 59.763C128.677 59.763 141.143 52.103 147.439 40.272H164.12C172.491 40.272 180.243 44.059 185.389 50.662L211.449 84.107L180.712 94.347Z" fill="currentColor"/>
<path d="M102.16 104.15C102.312 100.087 103.641 96.9539 106.147 94.7512C108.654 92.5486 112.053 91.4473 116.344 91.4473C119.192 91.4473 121.623 91.941 123.636 92.9284C125.686 93.9157 127.224 95.2639 128.25 96.9729C129.313 98.6818 129.845 100.6 129.845 102.726C129.845 105.233 129.218 107.283 127.965 108.879C126.712 110.436 125.25 111.499 123.579 112.069V112.296C125.743 113.018 127.452 114.214 128.706 115.885C129.959 117.556 130.585 119.702 130.585 122.322C130.585 124.677 130.035 126.765 128.933 128.588C127.87 130.373 126.294 131.778 124.205 132.804C122.155 133.829 119.705 134.342 116.857 134.342C112.3 134.342 108.654 133.221 105.92 130.981C103.223 128.74 101.799 125.36 101.647 120.841H111.103C111.141 122.512 111.616 123.841 112.527 124.829C113.439 125.778 114.768 126.253 116.515 126.253C117.996 126.253 119.135 125.835 119.933 125C120.768 124.126 121.186 122.987 121.186 121.582C121.186 119.759 120.598 118.449 119.42 117.651C118.281 116.816 116.439 116.398 113.895 116.398H112.072V108.48H113.895C115.831 108.48 117.388 108.157 118.566 107.511C119.781 106.828 120.389 105.632 120.389 103.923C120.389 102.555 120.009 101.492 119.249 100.733C118.49 99.973 117.445 99.5932 116.116 99.5932C114.673 99.5932 113.591 100.03 112.869 100.903C112.186 101.777 111.787 102.859 111.673 104.15H102.16Z" fill="currentColor"/>
</g>
<defs>
<clipPath id="clip0_310_378">
<rect width="230.057" height="230.057" fill="currentColor"/>
</clipPath>
</defs>
</svg>
