<svg width="231" height="231" viewBox="0 0 231 231" fill="none" xmlns="http://www.w3.org/2000/svg">
<g clip-path="url(#clip0_309_317)">
<path d="M228.579 83.315L196.432 42.057C188.615 32.025 176.838 26.272 164.12 26.272H142.916C139.977 26.272 137.351 28.108 136.342 30.869C133.085 39.778 124.52 45.764 115.029 45.764C105.538 45.764 96.974 39.778 93.716 30.869C92.707 28.108 90.081 26.272 87.142 26.272H65.937C53.22 26.272 41.442 32.025 33.625 42.058L1.47901 83.315C0.0820137 85.108 -0.357986 87.467 0.300014 89.643C0.958014 91.819 2.63101 93.54 4.78801 94.258L49.346 109.103V196.785C49.346 200.651 52.48 203.785 56.346 203.785H173.712C177.578 203.785 180.712 200.651 180.712 196.785V109.103L225.27 94.258C227.427 93.54 229.1 91.819 229.758 89.643C230.416 87.467 229.976 85.108 228.579 83.315ZM180.712 94.347V84.057C180.712 80.191 177.578 77.057 173.712 77.057C169.846 77.057 166.712 80.191 166.712 84.057V189.785H63.345V84.057C63.345 80.191 60.211 77.057 56.345 77.057C52.479 77.057 49.345 80.191 49.345 84.057V94.347L18.609 84.107L44.668 50.663C49.814 44.059 57.565 40.272 65.937 40.272H82.618C88.913 52.104 101.379 59.763 115.028 59.763C128.677 59.763 141.143 52.103 147.439 40.272H164.12C172.491 40.272 180.243 44.059 185.389 50.662L211.449 84.107L180.712 94.347Z" fill="currentColor"/>
<path d="M130.366 99.7072L116.068 134H106.099L120.568 100.79H102.852V92.4727H130.366V99.7072Z" fill="currentColor"/>
</g>
<defs>
<clipPath id="clip0_309_317">
<rect width="230.057" height="230.057" fill="currentColor"/>
</clipPath>
</defs>
</svg>
