<svg width="231" height="231" viewBox="0 0 231 231" fill="none" xmlns="http://www.w3.org/2000/svg">
<g clip-path="url(#clip0_309_321)">
<path d="M228.579 83.315L196.432 42.057C188.615 32.025 176.838 26.272 164.12 26.272H142.916C139.977 26.272 137.351 28.108 136.342 30.869C133.085 39.778 124.52 45.764 115.029 45.764C105.538 45.764 96.9739 39.778 93.7159 30.869C92.7069 28.108 90.0809 26.272 87.1419 26.272H65.9369C53.2199 26.272 41.4419 32.025 33.6249 42.058L1.47889 83.315C0.0818917 85.108 -0.358108 87.467 0.299892 89.643C0.957892 91.819 2.63089 93.54 4.78789 94.258L49.3459 109.103V196.785C49.3459 200.651 52.4799 203.785 56.3459 203.785H173.712C177.578 203.785 180.712 200.651 180.712 196.785V109.103L225.27 94.258C227.427 93.54 229.1 91.819 229.758 89.643C230.416 87.467 229.976 85.108 228.579 83.315ZM180.712 94.347V84.057C180.712 80.191 177.578 77.057 173.712 77.057C169.846 77.057 166.712 80.191 166.712 84.057V189.785H63.3449V84.057C63.3449 80.191 60.2109 77.057 56.3449 77.057C52.4789 77.057 49.3449 80.191 49.3449 84.057V94.347L18.6089 84.107L44.6679 50.663C49.8139 44.059 57.5649 40.272 65.9369 40.272H82.6179C88.9129 52.104 101.379 59.763 115.028 59.763C128.677 59.763 141.143 52.103 147.439 40.272H164.12C172.491 40.272 180.243 44.059 185.389 50.662L211.449 84.107L180.712 94.347Z" fill="currentColor"/>
<path d="M129.319 100.903H111.546V108.765C112.305 107.929 113.369 107.246 114.736 106.714C116.103 106.182 117.584 105.916 119.179 105.916C122.027 105.916 124.382 106.562 126.243 107.853C128.141 109.144 129.528 110.815 130.401 112.866C131.274 114.917 131.711 117.138 131.711 119.531C131.711 123.974 130.458 127.506 127.952 130.126C125.445 132.709 121.913 134 117.356 134C114.318 134 111.679 133.487 109.438 132.462C107.197 131.399 105.469 129.937 104.254 128.076C103.039 126.215 102.374 124.069 102.26 121.639H111.774C112.001 122.816 112.552 123.803 113.425 124.601C114.299 125.36 115.495 125.74 117.014 125.74C118.799 125.74 120.128 125.171 121.002 124.031C121.875 122.892 122.312 121.373 122.312 119.474C122.312 117.613 121.856 116.189 120.945 115.202C120.033 114.214 118.704 113.721 116.957 113.721C115.666 113.721 114.603 114.043 113.767 114.689C112.932 115.297 112.381 116.113 112.115 117.138H102.716V92.3588H129.319V100.903Z" fill="currentColor"/>
</g>
<defs>
<clipPath id="clip0_309_321">
<rect width="230.057" height="230.057" fill="currentColor"/>
</clipPath>
</defs>
</svg>
