<svg width="24" height="24" viewBox="0 0 24 24" fill="none" xmlns="http://www.w3.org/2000/svg">
<path d="M11.0489 4.92705C11.3483 4.00574 12.6517 4.00574 12.9511 4.92705L14.2451 8.90983C14.379 9.32185 14.763 9.60081 15.1962 9.60081H19.3839C20.3527 9.60081 20.7554 10.8404 19.9717 11.4098L16.5838 13.8713C16.2333 14.126 16.0866 14.5773 16.2205 14.9894L17.5146 18.9721C17.8139 19.8934 16.7595 20.6596 15.9757 20.0902L12.5878 17.6287C12.2373 17.374 11.7627 17.374 11.4122 17.6287L8.02426 20.0902C7.24054 20.6596 6.18607 19.8934 6.48542 18.9721L7.7795 14.9894C7.91338 14.5773 7.76672 14.126 7.41623 13.8713L4.02827 11.4098C3.24456 10.8404 3.64734 9.60081 4.61606 9.60081H8.8038C9.23703 9.60081 9.62099 9.32185 9.75486 8.90983L11.0489 4.92705Z" stroke="currentColor" stroke-width="2" stroke-linecap="round" stroke-linejoin="round"/>
</svg>
