<svg width="16" height="16" viewBox="0 0 16 16" fill="none" xmlns="http://www.w3.org/2000/svg">
<path d="M8 5.25C7.66848 5.25 7.35054 5.1183 7.11612 4.88388C6.8817 4.64946 6.75 4.33152 6.75 4C6.75 3.66848 6.8817 3.35054 7.11612 3.11612C7.35054 2.8817 7.66848 2.75 8 2.75C8.33152 2.75 8.64946 2.8817 8.88388 3.11612C9.1183 3.35054 9.25 3.66848 9.25 4C9.25 4.33152 9.1183 4.64946 8.88388 4.88388C8.64946 5.1183 8.33152 5.25 8 5.25ZM8 9.25C7.66848 9.25 7.35054 9.1183 7.11612 8.88388C6.8817 8.64946 6.75 8.33152 6.75 8C6.75 7.66848 6.8817 7.35054 7.11612 7.11612C7.35054 6.8817 7.66848 6.75 8 6.75C8.33152 6.75 8.64946 6.8817 8.88388 7.11612C9.1183 7.35054 9.25 7.66848 9.25 8C9.25 8.33152 9.1183 8.64946 8.88388 8.88388C8.64946 9.1183 8.33152 9.25 8 9.25ZM6.75 12C6.75 12.3315 6.8817 12.6495 7.11612 12.8839C7.35054 13.1183 7.66848 13.25 8 13.25C8.33152 13.25 8.64946 13.1183 8.88388 12.8839C9.1183 12.6495 9.25 12.3315 9.25 12C9.25 11.6685 9.1183 11.3505 8.88388 11.1161C8.64946 10.8817 8.33152 10.75 8 10.75C7.66848 10.75 7.35054 10.8817 7.11612 11.1161C6.8817 11.3505 6.75 11.6685 6.75 12Z" fill="currentColor"/>
</svg>
