<svg width="71" height="37" viewBox="0 0 71 37" fill="none" xmlns="http://www.w3.org/2000/svg">
<path d="M14.5369 29.9827C13.8293 29.9827 13.2432 29.8279 12.7788 29.5183C12.3366 29.1866 11.9717 28.689 11.6842 28.0256L3.32508 9.4498C3.01548 8.78637 2.92702 8.20035 3.05971 7.69173C3.19239 7.16099 3.46882 6.75188 3.88899 6.4644C4.30915 6.1548 4.81778 6 5.41486 6C6.16674 6 6.7417 6.17691 7.13976 6.53074C7.53781 6.86245 7.86952 7.36002 8.13489 8.02344L15.4657 24.9739H13.8072L21.138 7.99027C21.4255 7.32685 21.7682 6.82928 22.1663 6.49757C22.5643 6.16586 23.1172 6 23.8248 6C24.4219 6 24.9084 6.1548 25.2844 6.4644C25.6824 6.75188 25.9257 7.16099 26.0141 7.69173C26.1247 8.20035 26.0362 8.78637 25.7488 9.4498L17.3896 28.0256C17.08 28.689 16.7041 29.1866 16.2618 29.5183C15.8416 29.8279 15.2667 29.9827 14.5369 29.9827Z" fill="currentColor"/>
<path d="M31.5392 29.6842C30.6989 29.6842 30.0465 29.452 29.5821 28.9876C29.1398 28.5232 28.9187 27.8819 28.9187 27.0637V8.85272C28.9187 7.99027 29.1398 7.3379 29.5821 6.89562C30.0244 6.45334 30.6657 6.2322 31.506 6.2322C32.3242 6.2322 32.9545 6.45334 33.3968 6.89562C33.8391 7.3379 34.0602 7.99027 34.0602 8.85272V25.3388H42.9501C43.6577 25.3388 44.1995 25.5267 44.5754 25.9027C44.9735 26.2786 45.1725 26.8093 45.1725 27.4949C45.1725 28.2025 44.9735 28.7443 44.5754 29.1203C44.1995 29.4962 43.6577 29.6842 42.9501 29.6842H31.5392Z" fill="currentColor"/>
<path d="M50.5211 29.9827C49.6808 29.9827 49.0395 29.7505 48.5972 29.2861C48.1549 28.8217 47.9338 28.1694 47.9338 27.329V8.62052C47.9338 7.78018 48.1549 7.13888 48.5972 6.69659C49.0395 6.2322 49.6808 6 50.5211 6C51.3393 6 51.9696 6.2322 52.4119 6.69659C52.8541 7.13888 53.0753 7.78018 53.0753 8.62052V16.4821H53.1416L61.9651 7.2605C62.3411 6.86245 62.7281 6.56391 63.1261 6.36488C63.5463 6.14374 64.0217 6.03317 64.5525 6.03317C65.3265 6.03317 65.8793 6.2322 66.211 6.63025C66.5649 7.0283 66.7197 7.4927 66.6754 8.02344C66.6312 8.55418 66.388 9.05174 65.9457 9.51614L57.089 18.5719L57.1222 16.3494L66.4101 26.2676C66.9187 26.8204 67.173 27.3843 67.173 27.9593C67.1951 28.5342 67.0071 29.0208 66.6091 29.4188C66.2332 29.7948 65.6692 29.9827 64.9174 29.9827C64.2761 29.9827 63.7564 29.85 63.3583 29.5847C62.9824 29.3193 62.5622 28.9323 62.0978 28.4237L53.1416 19.0031H53.0753V27.329C53.0753 28.1694 52.8541 28.8217 52.4119 29.2861C51.9917 29.7505 51.3614 29.9827 50.5211 29.9827Z" fill="currentColor"/>
</svg>
