<svg width="91" height="91" viewBox="0 0 91 91" fill="none" xmlns="http://www.w3.org/2000/svg">
<path d="M24.5369 56.9827C23.8293 56.9827 23.2432 56.8279 22.7788 56.5183C22.3366 56.1866 21.9717 55.689 21.6842 55.0256L13.3251 36.4498C13.0155 35.7864 12.927 35.2004 13.0597 34.6917C13.1924 34.161 13.4688 33.7519 13.889 33.4644C14.3092 33.1548 14.8178 33 15.4149 33C16.1667 33 16.7417 33.1769 17.1398 33.5307C17.5378 33.8624 17.8695 34.36 18.1349 35.0234L25.4657 51.9739H23.8072L31.138 34.9903C31.4255 34.3268 31.7682 33.8293 32.1663 33.4976C32.5643 33.1659 33.1172 33 33.8248 33C34.4219 33 34.9084 33.1548 35.2844 33.4644C35.6824 33.7519 35.9257 34.161 36.0141 34.6917C36.1247 35.2004 36.0362 35.7864 35.7488 36.4498L27.3896 55.0256C27.08 55.689 26.7041 56.1866 26.2618 56.5183C25.8416 56.8279 25.2667 56.9827 24.5369 56.9827Z" fill="white"/>
<path d="M41.5392 56.6842C40.6989 56.6842 40.0465 56.452 39.5821 55.9876C39.1398 55.5232 38.9187 54.8819 38.9187 54.0637V35.8527C38.9187 34.9903 39.1398 34.3379 39.5821 33.8956C40.0244 33.4533 40.6657 33.2322 41.506 33.2322C42.3242 33.2322 42.9545 33.4533 43.3968 33.8956C43.8391 34.3379 44.0602 34.9903 44.0602 35.8527V52.3388H52.9501C53.6577 52.3388 54.1995 52.5267 54.5754 52.9027C54.9735 53.2786 55.1725 53.8093 55.1725 54.4949C55.1725 55.2025 54.9735 55.7443 54.5754 56.1203C54.1995 56.4962 53.6577 56.6842 52.9501 56.6842H41.5392Z" fill="white"/>
<path d="M60.5211 56.9827C59.6808 56.9827 59.0395 56.7505 58.5972 56.2861C58.1549 55.8217 57.9338 55.1694 57.9338 54.329V35.6205C57.9338 34.7802 58.1549 34.1389 58.5972 33.6966C59.0395 33.2322 59.6808 33 60.5211 33C61.3393 33 61.9696 33.2322 62.4119 33.6966C62.8541 34.1389 63.0753 34.7802 63.0753 35.6205V43.4821H63.1416L71.9651 34.2605C72.3411 33.8625 72.7281 33.5639 73.1261 33.3649C73.5463 33.1437 74.0217 33.0332 74.5525 33.0332C75.3265 33.0332 75.8793 33.2322 76.211 33.6303C76.5649 34.0283 76.7197 34.4927 76.6754 35.0234C76.6312 35.5542 76.388 36.0517 75.9457 36.5161L67.089 45.5719L67.1222 43.3494L76.4101 53.2676C76.9187 53.8204 77.173 54.3843 77.173 54.9593C77.1951 55.5342 77.0071 56.0208 76.6091 56.4188C76.2332 56.7948 75.6692 56.9827 74.9174 56.9827C74.2761 56.9827 73.7564 56.85 73.3583 56.5847C72.9824 56.3193 72.5622 55.9323 72.0978 55.4237L63.1416 46.0031H63.0753V54.329C63.0753 55.1694 62.8541 55.8217 62.4119 56.2861C61.9917 56.7505 61.3614 56.9827 60.5211 56.9827Z" fill="white"/>
</svg>
